<?xml version="1.0" standalone="no"?>
<!DOCTYPE svg PUBLIC "-//W3C//DTD SVG 20010904//EN"
 "http://www.w3.org/TR/2001/REC-SVG-20010904/DTD/svg10.dtd">
<svg version="1.0" xmlns="http://www.w3.org/2000/svg"
 width="300.000000pt" height="120.000000pt" viewBox="0 0 300.000000 120.000000"
 preserveAspectRatio="xMidYMid meet">
<linearGradient id="gradient" x1="50%" y1="100%" x2="50%" y2="0%">
<stop offset="80%" stop-color="#cfcfcc"></stop>
<stop offset="20%" stop-color="#9c9c9c"></stop>
</linearGradient>
<g transform="translate(0.000000,150.000000) scale(0.100000,-0.100000)"
stroke="none" stroke-width="0" fill="url(#gradient)" class="transition-all duration-300 ease-in-out delay-150 path-0">
<path d="M1650 1354 c-80 -8 -230 -28 -335 -45 -271 -44 -383 -42 -620 6 -239
50 -308 50 -527 5 l-168 -34 0 -643 0 -643 1500 0 1500 0 0 644 0 643 -52 -13
c-68 -18 -225 -18 -310 0 -36 8 -103 26 -147 40 -174 55 -516 71 -841 40z"/>
</g>
</svg>